<mxfile host="app.diagrams.net" modified="2020-08-31T09:23:25.215Z" agent="5.0 (Windows NT 10.0; Win64; x64) AppleWebKit/537.36 (KHTML, like Gecko) Chrome/85.0.4183.83 Safari/537.36" etag="RcToCPp4HrpMKjFLnZ_F" version="13.6.5" type="github">
  <diagram id="VnM8rDOnQ-AmOxSZQDqf" name="Page-1">
    <mxGraphModel dx="837" dy="752" grid="1" gridSize="10" guides="1" tooltips="1" connect="1" arrows="1" fold="1" page="1" pageScale="1" pageWidth="850" pageHeight="1100" math="0" shadow="0">
      <root>
        <mxCell id="0" />
        <mxCell id="1" parent="0" />
        <mxCell id="_H29uu3v-xKwiLKlLZaM-1" value="" style="verticalLabelPosition=bottom;verticalAlign=top;html=1;shadow=0;dashed=0;strokeWidth=1;shape=mxgraph.android.phone2;strokeColor=#c0c0c0;" parent="1" vertex="1">
          <mxGeometry x="320" y="170" width="200" height="390" as="geometry" />
        </mxCell>
        <mxCell id="Zi3AELV8wAvUhVB0br3J-1" value="Navbar" style="rounded=0;whiteSpace=wrap;html=1;" vertex="1" parent="1">
          <mxGeometry x="330" y="210" width="180" height="30" as="geometry" />
        </mxCell>
        <mxCell id="Zi3AELV8wAvUhVB0br3J-2" value="todo title" style="rounded=0;whiteSpace=wrap;html=1;" vertex="1" parent="1">
          <mxGeometry x="330" y="250" width="120" height="30" as="geometry" />
        </mxCell>
        <mxCell id="Zi3AELV8wAvUhVB0br3J-3" value="+" style="rounded=0;whiteSpace=wrap;html=1;" vertex="1" parent="1">
          <mxGeometry x="460" y="250" width="50" height="30" as="geometry" />
        </mxCell>
        <mxCell id="Zi3AELV8wAvUhVB0br3J-7" value="" style="edgeStyle=orthogonalEdgeStyle;rounded=0;orthogonalLoop=1;jettySize=auto;html=1;" edge="1" parent="1" source="Zi3AELV8wAvUhVB0br3J-4" target="Zi3AELV8wAvUhVB0br3J-6">
          <mxGeometry relative="1" as="geometry" />
        </mxCell>
        <mxCell id="Zi3AELV8wAvUhVB0br3J-4" value="todo item" style="rounded=0;whiteSpace=wrap;html=1;" vertex="1" parent="1">
          <mxGeometry x="330" y="300" width="180" height="30" as="geometry" />
        </mxCell>
        <mxCell id="Zi3AELV8wAvUhVB0br3J-6" value="&lt;span&gt;todo item&lt;/span&gt;" style="rounded=0;whiteSpace=wrap;html=1;" vertex="1" parent="1">
          <mxGeometry x="330" y="350" width="180" height="30" as="geometry" />
        </mxCell>
      </root>
    </mxGraphModel>
  </diagram>
</mxfile>
